<svg width="1200" height="300" viewBox="0 0 1200 300" fill="none" xmlns="http://www.w3.org/2000/svg">
  <defs>
    <linearGradient id="bg" x1="40" y1="20" x2="1160" y2="280" gradientUnits="userSpaceOnUse">
      <stop stop-color="#0B1220"/>
      <stop offset="0.52" stop-color="#111C31"/>
      <stop offset="1" stop-color="#172554"/>
    </linearGradient>
    <linearGradient id="accent" x1="690" y1="80" x2="1080" y2="230" gradientUnits="userSpaceOnUse">
      <stop stop-color="#60A5FA"/>
      <stop offset="1" stop-color="#A78BFA"/>
    </linearGradient>
    <pattern id="grid" width="36" height="36" patternUnits="userSpaceOnUse">
      <path d="M36 0H0V36" stroke="#94A3B8" stroke-opacity=".08"/>
    </pattern>
    <filter id="glow" x="-50%" y="-50%" width="200%" height="200%">
      <feGaussianBlur stdDeviation="6" result="blur"/>
      <feMerge><feMergeNode in="blur"/><feMergeNode in="SourceGraphic"/></feMerge>
    </filter>
  </defs>

  <rect width="1200" height="300" rx="24" fill="url(#bg)"/>
  <rect width="1200" height="300" rx="24" fill="url(#grid)"/>
  <circle cx="1090" cy="44" r="180" fill="#2563EB" fill-opacity=".08"/>
  <circle cx="1000" cy="270" r="150" fill="#8B5CF6" fill-opacity=".07"/>

  <g font-family="-apple-system,BlinkMacSystemFont,'Segoe UI',Arial,sans-serif">
    <rect x="68" y="55" width="118" height="30" rx="15" fill="#1E293B" stroke="#334155"/>
    <circle cx="88" cy="70" r="5" fill="#34D399"/>
    <text x="102" y="75" fill="#CBD5E1" font-size="13" font-weight="600" letter-spacing=".8">AVAILABLE</text>

    <text x="68" y="137" fill="#F8FAFC" font-size="49" font-weight="750">Onur Köse</text>
    <text x="68" y="181" fill="#93C5FD" font-size="23" font-weight="600">Full-stack engineer · backend focused</text>
    <text x="68" y="220" fill="#94A3B8" font-size="17">Enterprise workflows · APIs · real-time systems · automation</text>
  </g>

  <g transform="translate(700 65)" font-family="-apple-system,BlinkMacSystemFont,'Segoe UI',Arial,sans-serif">
    <path d="M90 45H182M238 45H330M210 72V126M90 153H182M238 153H330" stroke="url(#accent)" stroke-width="2" stroke-linecap="round" stroke-dasharray="5 7" opacity=".8"/>
    <circle cx="210" cy="45" r="7" fill="#60A5FA" filter="url(#glow)"/>
    <circle cx="210" cy="153" r="7" fill="#A78BFA" filter="url(#glow)"/>

    <g>
      <rect x="0" y="17" width="90" height="56" rx="12" fill="#172033" stroke="#334155"/>
      <text x="45" y="50" text-anchor="middle" fill="#E2E8F0" font-size="15" font-weight="650">CLIENT</text>
    </g>
    <g>
      <rect x="182" y="17" width="56" height="56" rx="16" fill="#172033" stroke="#60A5FA"/>
      <text x="210" y="51" text-anchor="middle" fill="#93C5FD" font-size="15" font-weight="750">API</text>
    </g>
    <g>
      <rect x="330" y="17" width="112" height="56" rx="12" fill="#172033" stroke="#334155"/>
      <text x="386" y="50" text-anchor="middle" fill="#E2E8F0" font-size="15" font-weight="650">SERVICES</text>
    </g>
    <g>
      <rect x="0" y="125" width="90" height="56" rx="12" fill="#172033" stroke="#334155"/>
      <text x="45" y="158" text-anchor="middle" fill="#E2E8F0" font-size="15" font-weight="650">EVENTS</text>
    </g>
    <g>
      <rect x="182" y="125" width="56" height="56" rx="16" fill="#172033" stroke="#A78BFA"/>
      <text x="210" y="159" text-anchor="middle" fill="#C4B5FD" font-size="14" font-weight="750">JOBS</text>
    </g>
    <g>
      <rect x="330" y="125" width="112" height="56" rx="12" fill="#172033" stroke="#334155"/>
      <text x="386" y="158" text-anchor="middle" fill="#E2E8F0" font-size="15" font-weight="650">DATA</text>
    </g>
  </g>
</svg>